<svg xmlns="http://www.w3.org/2000/svg" xml:space="preserve" width="2577" height="456" style="overflow:visible;enable-background:new 0 0 2577 456"><path d="m1235.8 397.6-1.8-1.8 1.8-19.9V75.8l-1.8-19.4 1.8-2h164.1c37.5 0 75.4 4.8 94.9 12 22.5 8.3 35.5 19.1 47 34.2 20.2 26.5 23.3 58.1 23.3 71.4 0 21.3-4 48.3-14 70.7-8.7 19.5-21.3 30.5-41.3 42.2-15 8.8-38.7 18.1-76 18.1h-79.2l-33-1.2-1.1 1.2v73.2l1.6 20.1-1.6 1.3h-84.7zm84.7-168.7.8 1.2 26.2-1.2h30.2c29.6 0 72.3 1.2 88-11.5 9-7.3 15.5-18 15.5-37.6 0-26.8-7.1-36.7-20.5-43.5-16-8.1-62.2-7.9-95.5-7.9h-21.8l-22-1.1-1.1 1.1s-2 24.6-2 48.9 2.2 51.6 2.2 51.6zM575.1 400.5l-1.9-1.9 1.9-26.9V84.6l-1.8-25.2 1.8-2.1h246.6l31.6-1.2 1 1.2v76.5l-.9 1.3-28.6-1.3H689.5l-25.7-1.3-1.3 1.3s-2 13-2 32.4 2 39.7 2 39.7l1 1.3 28.9-1.3h93l28.8-1.9 1.6 1.9v72.9l-1.9 1.8-30-1.8h-91.4l-29-1.2-1 1.2v93.9l1.9 26.1-1.9 1.8h-87.4z" class="st4"/><path d="M336.3 375.9c-14.2-14.8-27.9-37.7-.4-68.1 19.7-21.8 31.8-57.2 29.7-91.3-1.4-22-10-52-37.3-76.7-7-6.3-13.6-15.4-12-25.6.9-6 2.8-13.3 13.1-23.9C342.9 76.2 351 69 371.2 48 333.6 22.6 280.1 1 231.7 1 104.3 1 1 102.5 1 227.8c0 125.3 103.3 226.8 230.7 226.8 46.6 0 101.4-18.5 138.2-42.1-11.3-12-16.9-19.2-33.6-36.6zm-104.6-83.2c-36.5 0-66-29.1-66-64.9 0-35.8 29.6-64.9 66-64.9 36.5 0 66 29.1 66 64.9 0 35.8-29.5 64.9-66 64.9z" class="st0"/><path d="M441 58.6c-1.8-1.9-3.6-4-5.6-6-4.4-4.5-10.2-9.9-14.9-13.9-2.5-2.1-4.2-3.2-8.5 1.1l-8.4 8.3c-13.7 13.6-22.5 22.7-28.5 29-4 4-8 7.9-12.6 12.7-10.3 10.6-12.2 17.8-13.1 23.9-1.5 10.3 5 19.3 12 25.6 27.3 24.7 35.9 54.7 37.3 76.7 2.1 34.1-10 69.5-29.7 91.3-27.5 30.4-13.8 53.3.4 68.1 4.8 5.1 8.9 9.2 13 13.5 5.5 6 13.2 13.7 23 24.3 6.3 6.7 7.9 4.8 12 2.5 5.9-3.4 13-11.3 16.9-15.6C527 297.8 529.8 151 441 58.6z" class="st1"/><path d="M412.6 418.8c-2.2 0-4.4-1.4-7.7-5-5.1-5.5-9.6-10.2-13.6-14.3-3.6-3.8-6.8-7.1-9.5-10-1.8-1.9-3.7-3.8-5.5-5.8-2.3-2.4-4.7-4.9-7.4-7.7-21.9-22.9-22-45.6-.5-69.5 19.9-22 31.5-57.6 29.5-90.6-1-16.8-7.2-49.1-36.9-76.1-6.5-5.9-14-15.3-12.3-26.5.9-6.1 2.7-13.5 13.3-24.4 4.9-5.1 9.1-9.3 12.6-12.7 7.7-8.1 17-17.6 28.5-29l8.4-8.3c2.2-2.3 4-3.3 5.6-3.3 1.6 0 2.9.9 4.2 2.1 4.6 3.8 10.3 9.2 14.9 14 1 1.1 2.1 2.2 3 3.2.8.9 1.7 1.8 2.5 2.7 89.2 92.9 86.4 240.2-6.5 342.9l-.2.5c-4.1 4.6-11 12.2-17 15.6-.3.2-.7.4-1 .6-1.5.9-2.8 1.6-4.4 1.6zM417 37.9c-1.1 0-2.4.9-4.2 2.7l-8.4 8.3c-11.4 11.4-20.8 20.8-28.5 29-3.5 3.4-7.6 7.6-12.6 12.7-10.2 10.5-11.9 17.5-12.8 23.3-1.5 10.3 5.5 19.1 11.7 24.7 30.2 27.4 36.5 60.3 37.6 77.4 2.1 33.5-9.7 69.6-30 92.1-27.6 30.6-13 52.7.4 66.8 2.7 2.8 5.1 5.3 7.4 7.7 1.9 2 3.7 3.9 5.6 5.8 2.7 2.9 5.8 6.2 9.5 10 4 4.1 8.5 8.8 13.6 14.3 2.8 3 4.7 4.3 6.2 4.3 1.1 0 2.1-.6 3.5-1.4.3-.2.7-.4 1-.6 5.7-3.3 12.7-11 16.5-15.2l.2-.2c92.2-101.8 95-248.1 6.5-340.1-.9-.9-1.7-1.8-2.6-2.8-1-1.1-2-2.1-3-3.2-4.6-4.7-10.3-10-14.8-13.8-.9-1.1-1.8-1.8-2.8-1.8z" class="st2"/><path d="M1054.2 409.5C948 409.5 869 329.7 869 228.8v-1c0-99.9 77.4-181.7 188.2-181.7 55.7 0 93.1 14.8 123.3 37.8 6 4.6 19 14.7 19 14.7v1.7L1149 157l-2.2-.1s-6.9-7.7-10.6-10.5c-23.9-18.3-48.9-29.1-79.5-29.1-60.9 0-104.7 49.2-104.7 109.4v1c0 60.2 42.8 110.4 104.7 110.4 33.2 0 56-10.4 78.4-27.5 4.9-3.8 14.2-14 14.2-14l2.3.3 50.5 49.7v1.7s-10 8.4-14.3 12.3c-33.7 30.5-72.8 48.9-133.6 48.9z" class="st4"/><path d="M1859.3 164.6H1706v85.8h137.1v25.8H1706v87.9h155.1V390h-183.4V138.7h181.6v25.9zM2084 282.6c0 73.2-42 111.3-104.8 111.3-62.1 0-104.4-38-104.4-109.1V138.7h28.4V283c0 54.2 28.7 84.7 76.8 84.7 46.3 0 75.7-28 75.7-82.9V138.7h28.4v143.9zM2284.6 390l-72.9-97.6H2140V390h-28.4V138.7h108c55.3 0 90.8 29.8 90.8 75 0 42-28.7 66.4-68.2 73.6l77.2 102.7h-34.8zm-67.1-225.1H2140v101.9h77.2c37.7 0 64.6-19.4 64.6-52 0-31.2-23.7-49.9-64.3-49.9zM2448.3 394.3c-76.4 0-127.8-59.9-127.8-129.6 0-69.6 52-130.3 128.5-130.3s127.8 59.9 127.8 129.6c0 69.6-52.1 130.3-128.5 130.3zm0-233.7c-57.4 0-98.3 45.9-98.3 103.4 0 57.4 41.6 104.1 99.1 104.1s98.3-45.9 98.3-103.4c0-57.4-41.7-104.1-99.1-104.1z" class="st3"/></svg>